<svg width="33" height="27" viewBox="0 0 33 27" fill="none" xmlns="http://www.w3.org/2000/svg">
<mask id="mask0_202_45" style="mask-type:alpha" maskUnits="userSpaceOnUse" x="0" y="0" width="33" height="27">
<path fill-rule="evenodd" clip-rule="evenodd" d="M0.597534 0H32.9207V26.3208H0.597534V0Z" fill="white"/>
</mask>
<g mask="url(#mask0_202_45)">
<path fill-rule="evenodd" clip-rule="evenodd" d="M9.41003 1.91016C4.87468 1.91016 2.93965 3.78976 2.93965 8.19207V18.1237C2.93965 22.1783 5.68523 24.4107 10.6704 24.4107H22.824C27.7967 24.4107 30.5344 22.1783 30.5344 18.1237V18.1199L30.5782 11.7972C30.5782 7.46875 28.7571 5.78144 24.0797 5.78144H19.6599C18.1778 5.78016 16.7628 5.20329 15.8726 4.23802L14.4467 2.69205C13.9985 2.20178 13.2816 1.91143 12.532 1.91016H9.41003ZM22.8242 26.3209H10.6705C4.45784 26.3209 0.597168 23.1793 0.597168 18.1237V8.19209C0.597168 2.75574 3.56295 0 9.41019 0H12.5337C14.019 0.00127345 15.4339 0.579418 16.321 1.54596L17.7438 3.08938C18.1951 3.57839 18.912 3.87001 19.6616 3.87128H24.0798C30.1114 3.87128 32.921 6.39143 32.921 11.8023L32.8772 18.1275C32.8757 23.1806 29.0244 26.3209 22.8242 26.3209V26.3209Z" fill="#371BB1"/>
</g>
<path fill-rule="evenodd" clip-rule="evenodd" d="M23.5802 17.4627H9.93817C9.2916 17.4627 8.76685 17.0348 8.76685 16.5076C8.76685 15.9804 9.2916 15.5525 9.93817 15.5525H23.5802C24.2267 15.5525 24.7515 15.9804 24.7515 16.5076C24.7515 17.0348 24.2267 17.4627 23.5802 17.4627" fill="#371BB1"/>
</svg>
