<svg width="16" height="14" viewBox="0 0 16 14" fill="none" xmlns="http://www.w3.org/2000/svg">
<path d="M14.2129 2.70927C14.8641 3.40416 15.189 4.21486 15.189 5.14138C15.189 8.49938 13.0408 9.48381 11.0221 9.77334C11.2826 10.1787 11.3477 10.642 11.3477 11.1052V13.4788C11.3477 13.7683 11.1523 13.942 10.8919 13.942C10.8232 13.9429 10.755 13.9315 10.6914 13.9085C10.6277 13.8856 10.5699 13.8515 10.5213 13.8083C10.4728 13.7651 10.4344 13.7137 10.4086 13.6571C10.3828 13.6005 10.3699 13.5399 10.3709 13.4788V11.1052C10.4052 10.8625 10.376 10.6161 10.2857 10.3851C10.1953 10.1541 10.0462 9.94472 9.84996 9.77334L10.1756 9.02055C12.1942 8.78892 14.278 8.20984 14.278 5.08347C14.278 4.33068 13.9524 3.63579 13.3664 3.05671L13.2361 2.59409C13.4838 2.03922 13.5065 1.42502 13.3005 0.856862C12.9757 0.914133 12.3245 1.03058 11.2182 1.72547L10.8267 1.78275C9.28877 1.43547 7.67758 1.43547 6.13961 1.78275L5.74818 1.72547C4.57747 1.08849 3.92628 0.91477 3.59997 0.91477C3.40461 1.49384 3.40461 2.13019 3.66437 2.65199L3.53485 3.11462C2.88366 3.69369 2.55807 4.44649 2.55807 5.14138C2.55807 8.20984 4.51164 8.84682 6.65984 9.07845L6.92032 9.83125C6.52961 10.1787 6.33425 10.642 6.39937 11.1052V13.5367C6.40033 13.5978 6.38752 13.6584 6.36168 13.715C6.33584 13.7716 6.2975 13.823 6.24893 13.8662C6.20036 13.9094 6.14255 13.9435 6.07891 13.9664C6.01527 13.9894 5.9471 14.0008 5.87842 14C5.80974 14.0008 5.74156 13.9894 5.67792 13.9664C5.61428 13.9435 5.55647 13.9094 5.5079 13.8662C5.45934 13.823 5.421 13.7716 5.39516 13.715C5.36932 13.6584 5.3565 13.5978 5.35747 13.5367V12.2055C3.20926 12.6108 2.36271 11.6264 1.71152 10.8742C1.38593 10.5268 1.12545 10.2372 0.799858 10.1793C0.735454 10.1214 0.539382 9.8898 0.604501 9.65817C0.66962 9.42654 0.930096 9.25281 1.19129 9.36863C1.84248 9.48444 2.23247 9.9477 2.62247 10.3531C3.20926 11.0479 3.79533 11.6843 5.55282 11.3375V11.1059C5.48842 10.6426 5.61794 10.1793 5.87842 9.77398C3.92485 9.42654 1.6464 8.44211 1.6464 5.14202C1.6464 4.2155 1.972 3.40479 2.62319 2.7099C2.42783 1.89983 2.49295 1.03122 2.81854 0.336331L3.14414 0.104701C3.27438 0.0467935 4.18604 -0.126929 6.07306 0.91477C7.6333 0.567371 9.26578 0.567371 10.826 0.91477C12.6501 -0.185473 13.6269 -0.0123867 13.7571 0.0461571L14.0827 0.277787C14.4083 1.08849 14.4734 1.8992 14.2129 2.70927V2.70927Z" fill="black"/>
</svg>
